<svg xmlns="http://www.w3.org/2000/svg" xmlns:xlink="http://www.w3.org/1999/xlink" viewBox="0 0 219.31 318.87"><defs><style>.cls-1{fill:url(#radial-gradient);}.cls-2{fill:#fff800;}.cls-3{fill:url(#radial-gradient-2);}.cls-4{fill:url(#radial-gradient-3);}</style><radialGradient id="radial-gradient" cx="57.33" cy="180.59" r="318.71" gradientUnits="userSpaceOnUse"><stop offset="1" stop-color="#27aae1"/><stop offset="1" stop-color="#2b3990"/></radialGradient><radialGradient id="radial-gradient-2" cx="103.88" cy="268.97" r="152.02" gradientUnits="userSpaceOnUse"><stop offset="0" stop-color="#8dc63f"/><stop offset="0" stop-color="#ff6315"/></radialGradient><radialGradient id="radial-gradient-3" cx="132.37" cy="147.9" r="145.33" gradientUnits="userSpaceOnUse"><stop offset="0" stop-color="#8dc63f"/><stop offset="1" stop-color="#8dc63f"/></radialGradient></defs><g id="Layer_2" data-name="Layer 2"><g id="Layer_1-2" data-name="Layer 1"><path class="cls-1" d="M86.43,275.14s-43-38,3.62-87.73S244.93,202.78,208.31,289.6c19.95-47.3,14.91-102.72-33.05-130.74-48.32-28.24-114.47-32.63-151.83,16.42C.24,205.74,10.08,248.55,43.35,267a68.92,68.92,0,0,0,20,7.27C67.28,275.08,84.39,273.32,86.43,275.14Z"/><path class="cls-2" d="M67.61,47.8S58,65.74,111.78,167.52C153.43,278.21,48.6,314.08,4.31,246.2c0,0,19.83,62.26,85.49,57s62.62-115.59,62.62-115.59Z"/><path class="cls-3" d="M73,64.55S62.88,81.66,122.76,177.32c46.91,104.25-66.29,139.63-115.4,76,0,0,22.47,58.68,93.64,52.86s66.18-110.3,66.18-110.3Z"/><path class="cls-4" d="M67.55,0S48.88,55.22,143,119s63,200.65-30.34,199.87S-8.67,244.2,2.22,209.21c0,0-10.89,59.1,53.66,83.21s133-34.22,70.77-123.66S57.44,42.77,67.55,0Z"/></g></g></svg>