<svg xmlns="http://www.w3.org/2000/svg" xmlns:xlink="http://www.w3.org/1999/xlink" viewBox="0 0 95.71 144.7"><defs><style>.cls-1{fill:#1f2b7d;}.cls-2{fill:none;}.cls-3{fill:#fff;}.cls-4{fill:url(#linear-gradient);}.cls-5{fill:url(#linear-gradient-2);}.cls-6{fill:url(#linear-gradient-3);}.cls-7{fill:url(#linear-gradient-4);}.cls-8{fill:#a17205;}.cls-9{fill:url(#linear-gradient-5);}.cls-10{fill:url(#linear-gradient-6);}</style><linearGradient id="linear-gradient" x1="21" y1="69.59" x2="46.5" y2="69.59" gradientTransform="matrix(1, 0, 0, -1, 0, 146)" gradientUnits="userSpaceOnUse"><stop offset="0" stop-color="#fff"/><stop offset="0.13" stop-color="#e7e7f1"/><stop offset="0.39" stop-color="#bcbbd8"/><stop offset="0.74" stop-color="#8484b5"/><stop offset="0.94" stop-color="#6768a3"/></linearGradient><linearGradient id="linear-gradient-2" x1="58.9" y1="70.75" x2="72.58" y2="70.75" gradientTransform="matrix(1, 0, 0, -1, 0, 146)" gradientUnits="userSpaceOnUse"><stop offset="0.1" stop-color="#6768a3"/><stop offset="0.32" stop-color="#8080b3"/><stop offset="0.81" stop-color="#cfcee3"/><stop offset="1" stop-color="#fff"/></linearGradient><linearGradient id="linear-gradient-3" x1="20.05" y1="71.58" x2="37.55" y2="71.58" gradientTransform="matrix(1, 0, 0, -1, 0, 146)" gradientUnits="userSpaceOnUse"><stop offset="0" stop-color="#fff"/><stop offset="0.16" stop-color="#e7e7f1"/><stop offset="0.45" stop-color="#bcbcd8"/><stop offset="0.86" stop-color="#8484b5"/><stop offset="0.94" stop-color="#7a7aaf"/></linearGradient><linearGradient id="linear-gradient-4" x1="53.7" y1="71.38" x2="73.55" y2="71.38" gradientTransform="matrix(1, 0, 0, -1, 0, 146)" gradientUnits="userSpaceOnUse"><stop offset="0.1" stop-color="#7a7aaf"/><stop offset="0.36" stop-color="#9594c0"/><stop offset="0.94" stop-color="#eeeef5"/><stop offset="1" stop-color="#fff"/></linearGradient><linearGradient id="linear-gradient-5" x1="19.64" y1="79.02" x2="47.14" y2="79.02" gradientTransform="matrix(1, 0, 0, -1, 0, 146)" gradientUnits="userSpaceOnUse"><stop offset="0.73" stop-color="#fff"/><stop offset="1" stop-color="#8e8ebc"/></linearGradient><linearGradient id="linear-gradient-6" x1="42.94" y1="79.11" x2="55.09" y2="79.11" xlink:href="#linear-gradient-4"/></defs><g id="Layer_2" data-name="Layer 2"><g id="Layer_1-2" data-name="Layer 1"><g id="Layer_1-3" data-name="Layer 1"><path class="cls-1" d="M94.1,2.9S76.3,0,47.8,0h0C19.4,0,1.6,2.9,1.6,2.9S-8,73.7,19.9,116.1c9.5,14.4,27.9,28.5,27.9,28.6h0c.1,0,18.5-14.2,27.9-28.6C103.8,73.7,94.1,2.9,94.1,2.9Z"/><path d="M7.8,19.3a3.22,3.22,0,0,0,.2.6,2.68,2.68,0,0,1,2.6-.9A3.57,3.57,0,0,0,7.8,19.3Z"/><path class="cls-2" d="M10.7,24.4c.1.1.2.2.3.2-.1,0-.2-.1-.3-.2Z"/><path d="M10.8,22.1h0c.1,0,.1,0,.2.1h.1v-.1c-.4-.1-.9-.3-1-.3H9.9l.9.3ZM9.7,25.5H9.6v.1c.1-.1.3-.1.4-.2a.77.77,0,0,1-.3.1ZM21.3,40.7c.2.2.4.3.5.4l.1.1c.1.1.2.2.2.3l.2.2.1.1a1.61,1.61,0,0,1,.5,1.1V41.7l-.7-.7Zm10-9.8,1.1,4.4H29.9a1.27,1.27,0,0,1,.6.1,10.27,10.27,0,0,0,2.5-.1l-.6-2.2ZM17.9,17.5a8.66,8.66,0,0,0-1-.2,3.5,3.5,0,0,0-1.2-.3,12.29,12.29,0,0,0-2.2.9,15.46,15.46,0,0,1,1.5-.4h.4c0,.2.2.3.5.3a.85.85,0,0,0,.6-.3,5.28,5.28,0,0,0,1.2.1A.35.35,0,0,0,17.9,17.5ZM20,25.4a.1.1,0,0,1,.1.1h.1a.1.1,0,0,1,.1.1c.1,0,.1.1.2.1h.1l.1.1h.1a.35.35,0,0,1,.2.1h.1a4,4,0,0,0,2.1.6,6.38,6.38,0,0,1-1.6-.6c-1-.6-1.6-.8-1.9-.7.2.2.2.2.3.2Zm-8.8-.6h0l-.2-.2a1.44,1.44,0,0,1-.6.7H10a2.49,2.49,0,0,0,.8-.1c.1.1.3-.1.4-.4Zm1-2.3a4.9,4.9,0,0,0,.5-2.3h0V19.1h0V19s-.2-.5-.6-.3c0,0,.2.1.2.5v1a15.54,15.54,0,0,1-.5,2.3l.4.4a.86.86,0,0,1,.2.8c-.2.4-.4,1-.6,1.1a.35.35,0,0,0-.1.2l.2.4c.1,0,.1-.4.3-.6s.4-.7.6-1.1a.86.86,0,0,0-.2-.8ZM36.6,29,39,31.4l-.3.3-.1.1-.2.2-.1.1-.2.2-.1.1-.2.2-.1.1c-.1,0-.1.1-.2.1s-.1.1-.2.1l-.1.1c-.1,0-.1.1-.2.1l-.1.1c-.1,0-.1.1-.2.1l-.1.1c-.1,0-.1.1-.2.1a.1.1,0,0,0-.1.1c-.1.1-.2.1-.2.2h0a12.44,12.44,0,0,1-2,1h0l.1.2a11.48,11.48,0,0,0,5.5-3.7L38,29.6Zm8.1-10.8a15.69,15.69,0,0,0-.3,1.6v.1a.37.37,0,0,1-.1.3v.4c0,.1,0,.2-.1.2v.1c0,.1-.1.2-.1.4v.1c0,.1-.1.2-.1.4h0c0,.1-.1.3-.1.4v.1l-.3.9h0L43,24.7l.6.1a36.48,36.48,0,0,0,2-7.1C45.2,17.9,44.9,18.1,44.7,18.2Zm-5.3,6.1,3.1,1.4-.3.6a19.72,19.72,0,0,1-2.4,4.2h0l.5.3a25,25,0,0,0,2.9-5l-3-1.3ZM25.2,40.5h-.7c-1.4,3-.4,6.8-.4,6.8h.2a17.56,17.56,0,0,1,4.1,1.6H29a14.22,14.22,0,0,0-4.3-1.6A10.21,10.21,0,0,1,25.2,40.5Zm-4.8,8.3h-.3a.37.37,0,0,0-.3.1h0c-.1,0-.2.1-.3.1h0c-.1,0-.2.1-.3.1h0c-.1,0-.2.1-.3.1h0c-.1,0-.2.1-.3.1h0a2.19,2.19,0,0,0-.5.3.9.9,0,0,0-.1.5,7.72,7.72,0,0,1,3.2-1.3,38.86,38.86,0,0,1,6.7.2A32.51,32.51,0,0,0,20.4,48.8Z"/><path class="cls-3" d="M16.4,17.5a.85.85,0,0,1-.6.3c-.3,0-.5-.1-.5-.3h-.4c-.2,0-1.4.4-1.5.4a12.29,12.29,0,0,1,2.2-.9,3.5,3.5,0,0,1,1.2.3,8.38,8.38,0,0,0,1,.2c.1,0-.1.1-.3.1A1.47,1.47,0,0,1,16.4,17.5Zm6.4,25.3a2.11,2.11,0,0,0-.5-1.1l-.1-.1c-.1-.1-.1-.2-.2-.2s-.2-.2-.2-.3l-.1-.1a2.18,2.18,0,0,0-.5-.4l1.5.4v1.8Zm22-25.1c-4.9,3.6-14.9,3.5-16.5,3.9s-1.1,1.5-1.1,1.5C25,28.8,21.1,26,21.1,26c-3-1.9-2.5.1-1.3,2.4-4.7-.6-.8-7.1.8-8.4,1.8-1.3,3.7-5.1,3.7-5.1-.6.6-2.3,1.8-6.9.9a4.42,4.42,0,0,0-3.5.9c-8.9-.8-6.6,3.1-6.6,3.1,1-1.5,3.7-.8,3.7-.8a1.17,1.17,0,0,0,.6,1,11.22,11.22,0,0,1-.5,2.2,7.37,7.37,0,0,0-1.4-.4c-.7.1-.6,1.1-1.4,1.4a1.23,1.23,0,0,0,.8.5,2,2,0,0,0-.3,1.1c0,.3.2.4.2.5v.4a1.42,1.42,0,0,1,.6-.2,2.49,2.49,0,0,0,.8-.1,1.44,1.44,0,0,0,.6-.7.1.1,0,0,1,.1.1,1.69,1.69,0,0,1,.3.6c.1,0,.1-.4.3-.6s.4-.7.6-1.1a.86.86,0,0,0-.2-.8l-.4-.4a13.16,13.16,0,0,0,.5-2.3h0v-1c0-.4-.2-.5-.2-.5.3-.3.6.3.6.3v1.2a1.54,1.54,0,0,0,.8-.2s2.9-.3,3.3.4.3,2.6-2.3,7.2c-2.8,5,.2,9.9,4.3,12,1.4,1,4.3,3.6,3.9,7,0,0-5.3,1.1-5.5,3.4a7.72,7.72,0,0,1,3.2-1.3,39,39,0,0,1,8.1.3A17.75,17.75,0,0,0,24,47.3s-1-3.8.4-6.8h.2c1.7-.4,4.8,1.3,4.8,1.3L28.7,40c3.2.5,4.8,4.3,4.8,4.3-.1-3.2-2.2-6.4-4.7-9.1a3.75,3.75,0,0,0,1,.1,10.27,10.27,0,0,0,2.5-.1l-1.1-4.4,2.2,4.1a11.48,11.48,0,0,0,5.5-3.7L36.6,29l3,1.6a25,25,0,0,0,2.9-5l-3.1-1.4,3.4.5A34.66,34.66,0,0,0,44.8,17.7Z"/><path d="M20.6,20c-1.7,1.3-5.6,7.8-.8,8.4-3.7-1.2-.1-7.1,1.5-8.3C23.1,18.8,25,15,25,15a4.37,4.37,0,0,1-1,.6C23.3,16.8,21.9,19.1,20.6,20Zm8.8,15.4a1.27,1.27,0,0,1-.6-.1c.1.1.2.3.4.4l.1.1c.1.1.2.3.3.4l.1.1c.1.1.2.3.3.4h0c.1.1.2.3.3.4h0c.1.1.2.3.3.4v.1c.1.1.2.3.3.4v.1c.1.1.2.3.3.4h0c.1.1.2.3.3.4h0c.1.1.2.3.3.4v.1a.76.76,0,0,1,.2.4v.1c.1.1.1.3.2.4v.1c.1.1.1.3.2.4v.1c.1.1.1.3.2.4a.1.1,0,0,0,.1.1c0,.1.1.3.1.4V42c0,.1.1.2.1.3s0,.1.1.2a.37.37,0,0,0,.1.3v.1c.5.8.8,1.4.8,1.4C34.1,41.4,31.8,38,29.4,35.4Zm-.7,4.7.6,1.6a7.23,7.23,0,0,1,.7.4l-.7-1.8A1.07,1.07,0,0,0,28.7,40.1Z"/><path class="cls-2" d="M22.1,40.9l.7.7v-.5Z"/><path d="M52.5,19.3l.2.6a2.68,2.68,0,0,1,2.6-.9A3.57,3.57,0,0,0,52.5,19.3Z"/><path class="cls-2" d="M55.4,24.4c.1.1.2.2.3.2-.1,0-.2-.1-.3-.2Z"/><path d="M55.5,22.1h0c.1,0,.1,0,.2.1h.1v-.1c-.4-.1-.9-.3-1-.3h-.2l.9.3Zm-1.1,3.4h-.1v.1c.1-.1.3-.1.4-.2a.77.77,0,0,1-.3.1ZM66,40.7c.2.2.4.3.5.4l.1.1c.1.1.2.2.2.3l.2.2.1.1a1.61,1.61,0,0,1,.5,1.1V41.7l-.7-.7Zm10-9.8,1.1,4.4H74.6a1.27,1.27,0,0,1,.6.1,10.27,10.27,0,0,0,2.5-.1l-.6-2.2ZM62.6,17.5a8.66,8.66,0,0,0-1-.2,3.5,3.5,0,0,0-1.2-.3,12.29,12.29,0,0,0-2.2.9,15.46,15.46,0,0,1,1.5-.4h.4c0,.2.2.3.5.3a.85.85,0,0,0,.6-.3,5.28,5.28,0,0,0,1.2.1A.35.35,0,0,0,62.6,17.5Zm2.1,7.9a.1.1,0,0,1,.1.1h.1a.1.1,0,0,1,.1.1c.1,0,.1.1.2.1h.1l.1.1h.1a.35.35,0,0,1,.2.1h.1a4,4,0,0,0,2.1.6,6.38,6.38,0,0,1-1.6-.6c-1-.6-1.6-.8-1.9-.7.2.2.2.2.3.2Zm-8.8-.6h0l-.2-.2a1.44,1.44,0,0,1-.6.7h-.4a2.49,2.49,0,0,0,.8-.1c.1.1.3-.1.4-.4Zm1-2.3a4.9,4.9,0,0,0,.5-2.3h0V19.1h0V19s-.2-.5-.6-.3c0,0,.2.1.2.5v1a15.54,15.54,0,0,1-.5,2.3l.4.4a.86.86,0,0,1,.2.8c-.2.4-.4,1-.6,1.1a.35.35,0,0,0-.1.2l.2.4c.1,0,.1-.4.3-.6s.4-.7.6-1.1a.86.86,0,0,0-.2-.8ZM81.3,29l2.4,2.4-.3.3-.1.1-.2.2-.1.1-.2.2-.1.1-.2.2-.1.1c-.1,0-.1.1-.2.1s-.1.1-.2.1l-.1.1c-.1,0-.1.1-.2.1l-.1.1c-.1,0-.1.1-.2.1l-.1.1c-.1,0-.1.1-.2.1a.1.1,0,0,0-.1.1c-.1.1-.2.1-.2.2h0a12.44,12.44,0,0,1-2,1h0l.1.2a11.48,11.48,0,0,0,5.5-3.7l-1.7-1.7Zm8.1-10.8a15.69,15.69,0,0,0-.3,1.6v.1a.37.37,0,0,1-.1.3v.4c0,.1,0,.2-.1.2v.1c0,.1-.1.2-.1.4v.1c0,.1-.1.2-.1.4h0c0,.1-.1.3-.1.4v.1l-.3.9h0l-.6,1.5.6.1a36.48,36.48,0,0,0,2-7.1C89.9,17.9,89.6,18.1,89.4,18.2Zm-5.3,6.1,3.1,1.4-.3.6a19.72,19.72,0,0,1-2.4,4.2h0l.5.3a25,25,0,0,0,2.9-5l-3-1.3ZM69.9,40.5h-.7c-1.4,3-.4,6.8-.4,6.8H69a17.56,17.56,0,0,1,4.1,1.6h.6a14.22,14.22,0,0,0-4.3-1.6A10.21,10.21,0,0,1,69.9,40.5Zm-4.8,8.3h-.3a.37.37,0,0,0-.3.1h0c-.1,0-.2.1-.3.1h0c-.1,0-.2.1-.3.1h0c-.1,0-.2.1-.3.1h0c-.1,0-.2.1-.3.1h0a2.19,2.19,0,0,0-.5.3.9.9,0,0,0-.1.5,7.72,7.72,0,0,1,3.2-1.3,38.86,38.86,0,0,1,6.7.2A32.51,32.51,0,0,0,65.1,48.8Z"/><path class="cls-3" d="M61.1,17.5a.85.85,0,0,1-.6.3c-.3,0-.5-.1-.5-.3h-.4c-.2,0-1.4.4-1.5.4a12.29,12.29,0,0,1,2.2-.9,3.5,3.5,0,0,1,1.2.3,8.38,8.38,0,0,0,1,.2c.1,0-.1.1-.3.1A1.47,1.47,0,0,1,61.1,17.5Zm6.4,25.3a2.11,2.11,0,0,0-.5-1.1l-.1-.1c-.1-.1-.1-.2-.2-.2s-.2-.2-.2-.3l-.1-.1a2.18,2.18,0,0,0-.5-.4l1.5.4v1.8Zm22-25.1c-4.9,3.6-14.9,3.5-16.5,3.9s-1.1,1.5-1.1,1.5c-2.2,5.8-6.2,2.9-6.2,2.9-3-1.9-2.5.1-1.3,2.4-4.7-.6-.8-7.1.8-8.4,1.9-1.3,3.8-5,3.8-5-.6.6-2.3,1.8-6.9.9a4.42,4.42,0,0,0-3.5.9C49.7,16,52,19.9,52,19.9c.9-1.5,3.6-.8,3.6-.8a1.17,1.17,0,0,0,.6,1,11.22,11.22,0,0,1-.5,2.2,7.37,7.37,0,0,0-1.4-.4c-.7.1-.6,1.1-1.4,1.4a1.23,1.23,0,0,0,.8.5,2,2,0,0,0-.3,1.1c0,.3.2.4.2.5v.4a1.42,1.42,0,0,1,.6-.2,2.49,2.49,0,0,0,.8-.1,1.44,1.44,0,0,0,.6-.7.1.1,0,0,1,.1.1,1.69,1.69,0,0,1,.3.6c.1,0,.1-.4.3-.6s.4-.7.6-1.1a.86.86,0,0,0-.2-.8l-.4-.4a13.16,13.16,0,0,0,.5-2.3h0v-1c0-.4-.2-.5-.2-.5.3-.3.6.3.6.3v1.2a1.54,1.54,0,0,0,.8-.2s2.9-.3,3.3.4.3,2.6-2.3,7.2c-2.8,5,.2,9.9,4.3,12,1.4,1,4.3,3.6,3.9,7,0,0-5.3,1.1-5.5,3.4a7.72,7.72,0,0,1,3.2-1.3,39,39,0,0,1,8.1.3,17.75,17.75,0,0,0-4.4-1.7s-1-3.8.4-6.8h.2c1.7-.4,4.8,1.3,4.8,1.3l-.7-1.8c3.2.5,4.8,4.3,4.8,4.3-.1-3.2-2.2-6.4-4.7-9.1a3.75,3.75,0,0,0,1,.1,10.27,10.27,0,0,0,2.5-.1L76,30.9,78.2,35a11.48,11.48,0,0,0,5.5-3.7L81.3,29l3,1.6a25,25,0,0,0,2.9-5l-3.1-1.4,3.4.5A34.66,34.66,0,0,0,89.5,17.7Z"/><path d="M65.3,20c-1.7,1.3-5.6,7.8-.8,8.4-3.7-1.2-.1-7.1,1.5-8.3,1.8-1.3,3.7-5.1,3.7-5.1a4.37,4.37,0,0,1-1,.6C68,16.8,66.6,19.1,65.3,20Zm8.8,15.4a1.27,1.27,0,0,1-.6-.1c.1.1.2.3.4.4l.1.1c.1.1.2.3.3.4l.1.1c.1.1.2.3.3.4h0c.1.1.2.3.3.4h0c.1.1.2.3.3.4v.1c.1.1.2.3.3.4v.1c.1.1.2.3.3.4h0c.1.1.2.3.3.4h0c.1.1.2.3.3.4v.1a.76.76,0,0,1,.2.4v.1c.1.1.1.3.2.4v.1c.1.1.1.3.2.4v.1c.1.1.1.3.2.4a.1.1,0,0,0,.1.1c0,.1.1.3.1.4V42c0,.1.1.2.1.3s0,.1.1.2a.37.37,0,0,0,.1.3v.1c.5.8.8,1.4.8,1.4C78.8,41.4,76.5,38,74.1,35.4Zm-.7,4.7.6,1.6a7.23,7.23,0,0,1,.7.4L74,40.3A1.07,1.07,0,0,0,73.4,40.1Z"/><path class="cls-2" d="M66.8,40.9l.7.7v-.5Z"/><path d="M26.6,92a2.49,2.49,0,0,0,.3.7,3.49,3.49,0,0,1,3.3-1.2A5.3,5.3,0,0,0,26.6,92Z"/><path class="cls-2" d="M30.2,98.5a.52.52,0,0,0,.4.2.76.76,0,0,1-.4-.2Z"/><path d="M30.3,95.5h0a.35.35,0,0,1,.2.1h.1v-.1c-.5-.1-1.1-.4-1.3-.3s-.1,0-.2.1a4.3,4.3,0,0,1,1.2.2ZM29,99.8h-.3v.2c.2-.1.3-.2.5-.2Zm14.5,19.1.6.6.1.1.3.3c.1.1.2.2.2.3a.1.1,0,0,0,.1.1,2.55,2.55,0,0,1,.6,1.3V120a7.53,7.53,0,0,0-.9-.9ZM56,106.6l1.4,5.5a.76.76,0,0,0-.4.1H54.3c.2,0,.5.1.7.1a16.86,16.86,0,0,0,3.2-.1l-.7-2.7ZM39.2,89.8c-.1,0-.9-.2-1.3-.3a5.67,5.67,0,0,0-1.5-.3,14.18,14.18,0,0,0-2.7,1.2c.1,0,1.5-.5,1.8-.5h.4c0,.3.3.4.7.4a.76.76,0,0,0,.7-.4,2.66,2.66,0,0,0,1.5.1C39.1,89.9,39.3,89.8,39.2,89.8Zm2.7,9.9c.1,0,.1,0,.2.1h.1a.1.1,0,0,1,.1.1c.1,0,.1.1.2.1a.1.1,0,0,1,.1.1c.1,0,.1.1.2.1a.1.1,0,0,1,.1.1c.1.1.2.1.3.2h.2a5.33,5.33,0,0,0,2.7.8,5,5,0,0,1-2-.8c-1.3-.8-2-1-2.4-.9a.35.35,0,0,0,.2.1Zm-11.1-.8h0l-.2-.2a1.74,1.74,0,0,1-.7.9.1.1,0,0,0-.1.1h-.3a2,2,0,0,0,1-.2,1.36,1.36,0,0,0,.3-.6ZM32.1,96a7.39,7.39,0,0,0,.6-2.9h0V91.8h0v-.1s-.3-.7-.7-.3c0,0,.2.1.3.6v1.3a11.54,11.54,0,0,1-.6,2.8c.1.2.4.4.5.5a1,1,0,0,1,.2,1,6,6,0,0,1-.7,1.4c0,.1-.1.1-.1.2a2.19,2.19,0,0,0,.3.5c.1,0,.1-.5.3-.7a6,6,0,0,0,.7-1.4,1,1,0,0,0-.2-1C32.4,96.3,32.2,96.2,32.1,96Zm30.7,8.3,3,3c-.1.1-.2.3-.3.4l-.1.1-.3.3-.1.1-.2.2c-.1,0-.1.1-.2.1l-.2.2-.2.2-.2.2-.2.2c-.1.1-.1.1-.2.1l-.2.2c-.1,0-.1.1-.2.1s-.2.1-.2.2l-.1.1c-.1.1-.2.1-.3.2a.1.1,0,0,0-.1.1c-.1.1-.2.1-.3.2h-.1a12.27,12.27,0,0,1-2.6,1.2h0l.2.3a14.31,14.31,0,0,0,6.9-4.6l-2.2-2.2ZM72.9,90.7c-.1.5-.2,1.1-.4,2v.1c0,.1-.1.3-.1.4s0,.2-.1.2v.2c0,.1-.1.2-.1.3V94a4.33,4.33,0,0,0-.1.5v.1c0,.2-.1.3-.1.5v.1c-.1.2-.1.4-.2.5v.1a5.64,5.64,0,0,1-.4,1.2h0a14.58,14.58,0,0,1-.7,1.9l.8.1A42.65,42.65,0,0,0,74,90.1,5.42,5.42,0,0,0,72.9,90.7Zm-6.7,7.6,3.9,1.7c-.1.3-.2.5-.3.8a27,27,0,0,1-3,5.2h0l.6.3A26.33,26.33,0,0,0,71,100l-3.7-1.7ZM48.4,118.7h-.9c-1.8,3.7-.5,8.5-.5,8.5a.37.37,0,0,1,.3.1,25.09,25.09,0,0,1,5.2,2h.7a19.62,19.62,0,0,0-5.4-2.1C47.8,127.4,46.4,122.4,48.4,118.7Zm-6,10.3a.6.6,0,0,0-.4.1h0a.76.76,0,0,0-.4.1h0c-.1,0-.2.1-.4.1h0c-.1,0-.2.1-.4.1h0c-.1,0-.2.1-.3.1h0c-.1,0-.2.1-.3.2h0c-.2.1-.5.2-.7.3a6.37,6.37,0,0,0-.2.7,9.93,9.93,0,0,1,4-1.6c3-.3,4.8,0,8.4.2A43.22,43.22,0,0,0,42.4,129Z"/><path class="cls-3" d="M37.4,89.8a.93.93,0,0,1-.7.4c-.4,0-.7-.1-.7-.4h-.4a8.3,8.3,0,0,1-1.8.5,14.18,14.18,0,0,1,2.7-1.2,5.67,5.67,0,0,1,1.5.3c.4.1,1.2.3,1.3.3s-.1.1-.3.2A2.86,2.86,0,0,1,37.4,89.8Zm8,31.8a2.55,2.55,0,0,0-.6-1.3.1.1,0,0,0-.1-.1c-.1-.1-.2-.2-.2-.3l-.3-.3a.1.1,0,0,0-.1-.1l-.6-.6,1.9.5ZM73,90c-6.1,4.6-18.7,4.3-20.7,4.9s-1.4,1.9-1.4,1.9c-2.8,7.2-7.7,3.7-7.7,3.7-3.8-2.3-3.1.1-1.6,3.1-5.9-.7-1-8.9,1.1-10.5s4.7-6.4,4.7-6.4c-.7.8-2.8,2.3-8.6,1.1a5.46,5.46,0,0,0-4.4,1.1c-11.2-1-8.3,3.9-8.3,3.9,1.2-1.9,4.5-1,4.5-1a1.24,1.24,0,0,0,.8,1.2,14.7,14.7,0,0,1-.6,2.7,5.93,5.93,0,0,0-1.7-.4c-.9.1-.8,1.4-1.7,1.8a1.56,1.56,0,0,0,1,.6,2.46,2.46,0,0,0-.4,1.4c0,.4.3.5.3.6v.5c.3-.1.5-.3.7-.3a2,2,0,0,0,1-.2,1.74,1.74,0,0,0,.7-.9c.1,0,.1.1.2.1a2.74,2.74,0,0,1,.4.7c.1,0,.1-.5.3-.7a6,6,0,0,0,.7-1.4,1,1,0,0,0-.2-1c-.1-.1-.4-.3-.5-.5a11.54,11.54,0,0,0,.6-2.8h0a5.19,5.19,0,0,0,0-1.3c0-.5-.3-.6-.3-.6.4-.3.7.3.7.3v1.5c.6-.1,1-.2,1-.2s3.6-.4,4.1.5.3,3.2-2.9,9c-3.5,6.3.2,12.4,5.4,15.1,1.7,1.3,5.3,4.5,4.9,8.8,0,0-6.6,1.3-6.9,4.3a9.93,9.93,0,0,1,4-1.6c3.4-.3,5.2-.1,10.1.4a23,23,0,0,0-5.5-2.1s-1.3-4.8.5-8.5h.2c2.2-.5,6,1.7,6,1.7l-.9-2.3c4,.6,6,5.4,6,5.4-.1-4-2.8-8-5.9-11.4.4.1.9.1,1.3.2a16.86,16.86,0,0,0,3.2-.1l-1.4-5.5,2.8,5.2a14.31,14.31,0,0,0,6.9-4.6l-3-3,3.7,2a26.33,26.33,0,0,0,3.6-6.3l-3.9-1.7,4.3.7A37.79,37.79,0,0,0,73,90Z"/><path d="M42.7,92.9c-2.1,1.6-7,9.8-1.1,10.5-4.7-1.5-.1-8.9,1.9-10.4,2.2-1.7,4.7-6.4,4.7-6.4a10.55,10.55,0,0,1-1.3.8C46,88.9,44.3,91.7,42.7,92.9Zm11,19.3c-.2,0-.5-.1-.7-.1l.5.5a.1.1,0,0,0,.1.1c.1.2.3.3.4.5a.1.1,0,0,0,.1.1c.1.2.3.3.4.5v.1a2.18,2.18,0,0,0,.4.5h0c.1.2.3.4.4.6l.1.1a2.18,2.18,0,0,0,.4.5.1.1,0,0,0,.1.1c.1.2.3.4.4.6h0a2.09,2.09,0,0,0,.4.6h0l.3.6a.1.1,0,0,0,.1.1,2.19,2.19,0,0,0,.3.5.1.1,0,0,0,.1.1,2.19,2.19,0,0,0,.3.5v.1c.1.2.1.3.2.5a.1.1,0,0,0,.1.1c.1.2.1.3.2.5s0,.1.1.2.1.3.2.5,0,.1.1.2.1.3.1.4a.37.37,0,0,0,.1.3c0,.1.1.2.1.4v.2a9,9,0,0,1,1,1.8C59.5,119.8,56.7,115.5,53.7,112.2Zm-.9,6,.8,2a9.24,9.24,0,0,1,.9.5l-.8-2.3A2.92,2.92,0,0,0,52.8,118.2Z"/><path class="cls-2" d="M44.6,119.2l.8.8v-.6Z"/><path class="cls-4" d="M34.8,73.2a.76.76,0,0,1-.4-.1.75.75,0,0,1-.5-.1,24.26,24.26,0,0,0-12.1,2.3L21,77.2s14.5-9.5,25.5,2.7A18.91,18.91,0,0,0,34.8,73.2Z"/><path class="cls-5" d="M72,75.6a24.65,24.65,0,0,0-13.1-2.1,25.17,25.17,0,0,1,13.7,3.7Z"/><path class="cls-6" d="M20.8,74.4,20,76.2s8.6-5,17.5-2.5C30.5,71.4,23.5,73.4,20.8,74.4Z"/><path class="cls-7" d="M53.7,74.8c9.9-4.1,19.9,1.6,19.9,1.6l-.7-1.6C70.2,73.7,62,71,53.7,74.8Z"/><path class="cls-8" d="M46.5,79.8c-9.2-10.1-20.8-5.2-24.4-3.2l-.4.9.7.4S34.6,69.2,45.1,80c1.6,1.6,1.8,1.2,3,0C60,68.7,70.4,77.8,70.7,77.7a6.39,6.39,0,0,0,1-.4l-.3-.8c-3.6-2-15.2-7.1-24.6,2.9Z"/><path class="cls-9" d="M19.6,75.2S35,67.5,46.5,80l.6-22.6s-10.9-8-20.5.4Z"/><path class="cls-10" d="M73.9,75.2S58.4,67.4,46.6,80l.6-22.6S59,49,67.3,57.8Z"/><path d="M29.4,62.6l.3-.1c.4-.1.6-.3.8-1h.3a5,5,0,0,0-.2,1.2c-.1.4-.1.7-.2,1.1h-.3c0-.5,0-.9-.5-.8h-.3l-.5,1.5c-.2.6,0,.6.8.5l-.1.3c-.5.1-1.1.2-1.7.3a15.69,15.69,0,0,1-1.6.3l.1-.3c.8-.2.9-.4,1.1-1.1l.9-2.7c.2-.8.2-1.1-.5-1l.1-.3a8.08,8.08,0,0,0,2-.3c.8-.2,1.6-.4,2.5-.6L32.3,61l-.4.1c0-1-.3-.8-1.3-.6-.6.1-.7.2-.9.8Z"/><path d="M33.7,61.1c.1-.7.2-.9-.5-.9l.1-.4a4.48,4.48,0,0,1,1.2-.1c.5-.1.8-.1,1.3-.2v.4c-.7.1-.8.3-.9,1l-.7,2.7c-.2.9-.2,1.1.5,1.1l-.1.3H33.2c-.4,0-1,.1-1.5.1l.1-.3c.7-.1.9-.4,1.1-1.2Z"/><path d="M36.9,63.7a2.39,2.39,0,0,0-.3.7c-.2.4.3.5.5.6l-.1.3c-.3,0-.6-.1-.9-.1h-.8l.1-.3c.6,0,.9-.7,1.2-1.3.8-1.7,1.8-3.9,1.8-3.9l.6.1s.7,3.6.8,4.4a5.43,5.43,0,0,0,.2,1.1c0,.2.3.4.5.5l-.1.3c-.4-.1-.7-.2-1.2-.3a5.07,5.07,0,0,0-1.3-.2l.1-.4c.3,0,.7,0,.7-.4,0-.1-.1-.6-.1-.7l-.1-.4a3.78,3.78,0,0,0-.8-.1,3.75,3.75,0,0,0-.8-.1Zm1-.7a2.44,2.44,0,0,1,.7.1L38.2,61l-.9,1.9A2.8,2.8,0,0,1,37.9,63Z"/><path d="M44.5,63.4l-.3-.1c0-.8,0-1.5-.4-1.7s-.5,0-.6.7l-.3,3c-.1.8,0,1.1.6,1.5v.4a6.66,6.66,0,0,1-1.2-.6c-.4-.2-.8-.3-1.3-.5l.1-.3c.7.2.7,0,.8-.8l.3-3c.1-.6.2-1-.3-1.1s-.6.4-.8,1.1l-.3-.1.2-1.7a10.26,10.26,0,0,1,2,.6,8.93,8.93,0,0,1,1.7.9Z"/><path d="M51.4,67.1c.6-.4.6-.7.6-1.4l-.2-3c0-.8,0-1.2-.7-.9v-.4a11.73,11.73,0,0,0,1.1-.5,7.37,7.37,0,0,1,1.4-.4v.4c-.7.2-.6.6-.6,1.4l.1,2.5c0,.9.1,1.4,1,1.2a1.85,1.85,0,0,0,1.6-1.9H56V66c-1.4.3-3,.9-3.4,1s-.9.4-1.3.6Z"/><path d="M55.6,60.3a7.6,7.6,0,0,1,1.4-.1h1.4v.3c-.7,0-.7.5-.6,1.2l.2,1.4c.1,1.2.5,1.9,1.6,1.8s1.1-.6,1-1.7L60.3,62a1.93,1.93,0,0,0-.3-1,.55.55,0,0,0-.6-.4v-.3c.3,0,.6.1.9.1a2.49,2.49,0,0,1,.8.1v.3a.51.51,0,0,0-.5.4,3.35,3.35,0,0,0,0,1l.1.8c.2,1.7.4,2.5-1.6,2.6a2.32,2.32,0,0,1-2.7-2.3l-.2-1.5c-.1-.8-.1-1.1-.8-1.1Z"/><path d="M66.2,65.7c.3.4.5.7.9.7l.1.3c-.5-.1-.8-.1-1.3-.2s-.8-.1-1.3-.2V66H65c.1,0,.1-.1.1-.2a1.61,1.61,0,0,0-.4-.7L64,64l-.4.6a2.61,2.61,0,0,0-.3.8c0,.3.3.4.5.5v.3c-.4-.1-.6-.1-1-.2s-.6-.1-.8-.1v-.3c.4.1.6-.3.8-.6l.9-1.3-1-1.5a2.09,2.09,0,0,0-.4-.6.89.89,0,0,0-.5-.4v-.3c.3.1.7.2,1.1.3s.8.1,1.1.2v.4c-.2,0-.5-.1-.4.2s.1.3.2.5l.5.7.3-.5a1.38,1.38,0,0,1,.3-.4c.1-.2-.2-.4-.5-.4v-.3c.3,0,.5.1.8.1h.7l.1.3c-.4,0-.5.2-.8.6l-.7,1Z"/></g></g></g></svg>