<?xml version="1.0" encoding="UTF-8"?><svg id="Layer_2" xmlns="http://www.w3.org/2000/svg" xmlns:xlink="http://www.w3.org/1999/xlink" viewBox="0 0 90.94 144.76"><defs><style>.cls-1{fill:none;}.cls-2{clip-path:url(#clippath);}.cls-3,.cls-4{fill:#c5fffe;}.cls-4{isolation:isolate;opacity:.5;}</style><clipPath id="clippath"><rect class="cls-1" y="100.06" width="86.5" height="44.7"/></clipPath></defs><g id="Layer_1-2"><g id="Layer_2-2"><g id="Layer_1-2"><g id="Layer_2-2"><g id="Layer_1-2-2"><g id="Logo"><g id="Secondary_j"><rect class="cls-4" x="71.65" y="25.63" width="5.8" height="33.15"/><path class="cls-4" d="M43.55,134.31c-18.25,0-33.1-14.85-33.1-33.1s14.85-33.1,33.1-33.1,33.1,14.85,33.1,33.1-14.85,33.1-33.1,33.1Zm0-60.2c-14.94,0-27.1,12.16-27.1,27.1s12.16,27.1,27.1,27.1,27.1-12.16,27.1-27.1-12.16-27.1-27.1-27.1Z"/><circle class="cls-4" cx="42.25" cy="96.36" r="8.2"/></g><g id="Main_j"><circle id="Dot3" class="cls-3" cx="74.55" cy="16.39" r="16.39"/><circle id="Dot2" class="cls-3" cx="74.55" cy="69.7" r="12"/><circle id="Dot" class="cls-3" cx="12" cy="101.21" r="12"/><g id="SquareCircle"><g class="cls-2"><path class="cls-3" d="M43.25,143.36C19.37,143.36-.05,123.94-.05,100.06S19.37,56.76,43.25,56.76s43.3,19.42,43.3,43.3-19.42,43.3-43.3,43.3Zm0-62.6c-10.64,0-19.3,8.66-19.3,19.3s8.66,19.3,19.3,19.3,19.3-8.66,19.3-19.3-8.66-19.3-19.3-19.3Z"/></g></g><rect class="cls-3" x="62.6" y="69.7" width="23.9" height="30.36"/></g></g></g></g></g></g></g></svg>