<?xml version="1.0" encoding="UTF-8"?><svg id="Layer_1" xmlns="http://www.w3.org/2000/svg" xmlns:xlink="http://www.w3.org/1999/xlink" viewBox="0 0 91.04 138.54"><defs><style>.cls-1{fill:none;}.cls-2{clip-path:url(#clippath);}.cls-3{isolation:isolate;opacity:.5;}</style><clipPath id="clippath"><rect class="cls-1" x=".1" y="93.84" width="86.5" height="44.7"/></clipPath></defs><g id="Layer_2"><g id="Layer_1-2"><g id="Layer_2-2"><g id="Layer_1-2-2"><g id="Logo"><g id="Secondary_j"><rect class="cls-3" x="71.3" y="27.55" width="5.8" height="33.15"/><path class="cls-3" d="M42.7,125.94c-18.25,0-33.1-14.85-33.1-33.1s14.85-33.1,33.1-33.1,33.1,14.85,33.1,33.1-14.85,33.1-33.1,33.1Zm0-60.2c-14.94,0-27.1,12.16-27.1,27.1s12.16,27.1,27.1,27.1,27.1-12.16,27.1-27.1-12.16-27.1-27.1-27.1Z"/><circle class="cls-3" cx="42.7" cy="90.14" r="8.2"/></g><g id="Main_j"><circle id="Dot3" cx="74.65" cy="16.39" r="16.39"/><circle id="Dot2" cx="74.7" cy="63.48" r="12"/><circle id="Dot" cx="12.1" cy="93.84" r="12"/><g id="SquareCircle"><g class="cls-2"><path d="M43.3,138.14C19.42,138.14,0,118.71,0,94.84S19.42,51.54,43.3,51.54s43.3,19.42,43.3,43.3-19.42,43.3-43.3,43.3Zm0-62.6c-10.64,0-19.3,8.66-19.3,19.3s8.66,19.3,19.3,19.3,19.3-8.66,19.3-19.3-8.66-19.3-19.3-19.3Z"/></g></g><rect x="62.65" y="63.48" width="23.9" height="30.36"/></g></g></g></g></g></g></svg>